<svg xmlns="http://www.w3.org/2000/svg" width="122.879" height="96.568" fill="#BBBBBB" xmlns:v="https://vecta.io/nano"><path d="M5.535 15.447h98.221c1.527 0 2.891.62 3.883 1.611a5.54 5.54 0 0 1 1.611 3.882v70.134c0 1.528-.621 2.891-1.611 3.883-.082.082-.166.165-.289.247-.951.868-2.23 1.363-3.635 1.363H5.494a5.46 5.46 0 0 1-3.883-1.61C.62 93.966 0 92.562 0 91.075V20.941a5.46 5.46 0 0 1 1.611-3.882c.991-.991 2.396-1.611 3.883-1.611h.041v-.001zm22.683 19.042c4.354 0 7.882 3.528 7.882 7.882s-3.528 7.883-7.882 7.883-7.882-3.529-7.882-7.883 3.528-7.882 7.882-7.882h0zm33.171 33.827l15.766-27.258 16.748 42.363-78.165-.001v-5.254l6.57-.327 6.567-16.093 3.282 11.496h9.855l8.537-22.004 10.84 17.078h0zM21.891 6.525a3.27 3.27 0 0 1-3.263-3.263A3.27 3.27 0 0 1 21.891 0h97.726a3.27 3.27 0 0 1 3.262 3.263v68.895a3.27 3.27 0 0 1-3.262 3.264c-1.818 0-3.264-1.487-3.264-3.264V6.567H21.891v-.042h0zm80.832 15.449H6.567v68.027h96.155V21.974h.001z"/></svg>